<svg width="60" height="60" viewBox="0 0 60 60" fill="none" xmlns="http://www.w3.org/2000/svg">
<path d="M8.1584 55.2391C8.1584 55.2391 8.1051 56.5803 9.41524 56.5803C11.0451 56.5803 24.5396 56.5625 24.5396 56.5625L24.5618 44.1695C24.5618 44.1695 24.3486 42.1266 26.3316 42.1266H32.607C34.9519 42.1266 34.8075 44.1695 34.8075 44.1695L34.7809 56.5226C34.7809 56.5226 47.5759 56.5226 49.5855 56.5226C51.2487 56.5226 51.1732 54.8527 51.1732 54.8527V32.0052L30.3087 13.4456L8.1584 32.0052V55.2391Z" fill="white"/>
<path d="M0 30.2776C0 30.2776 1.88083 33.7439 5.98223 30.2776L30.493 9.54181L53.4737 30.1488C58.2213 33.5729 60 30.1488 60 30.1488L30.493 3.41968L0 30.2776Z" fill="white"/>
<path d="M52.9164 9.49295H47.0052L47.0296 16.661L52.9164 21.6551V9.49295Z" fill="white"/>
</svg>
